<?xml version="1.0" encoding="utf-8"?>
<svg version="1.1" xmlns:xlink="http://www.w3.org/1999/xlink" width="63px" height="60px" xmlns="http://www.w3.org/2000/svg">
  <g transform="matrix(1 0 0 1 -218 -79 )">
    <path d="M 29.04812834224599 19.597989949748744  C 30.445632798573975 18.19095477386934  31.144385026737968 16.482412060301503  31.144385026737968 14.472361809045228  C 31.144385026737968 12.46231155778894  30.445632798573975 10.753768844221103  29.04812834224599 9.34673366834171  C 27.65062388591801 7.939698492462308  25.95365418894831 7.236180904522611  23.9572192513369 7.236180904522611  C 21.96078431372549 7.236180904522611  20.263814616755795 7.939698492462308  18.866310160427805 9.34673366834171  C 17.468805704099825 10.753768844221103  16.77005347593583 12.46231155778894  16.77005347593583 14.472361809045228  C 16.77005347593583 15.527638190954772  17.007130124777184 16.570351758793965  17.481283422459896 17.600502512562816  C 16.45811051693405 17.123115577889443  15.42245989304813 16.884422110552762  14.374331550802138 16.884422110552762  C 12.377896613190732 16.884422110552762  10.680926916221035 17.587939698492455  9.283422459893048 18.994974874371863  C 7.885918003565064 20.402010050251256  7.187165775401069 22.110552763819094  7.187165775401069 24.120603015075375  C 7.187165775401069 26.130653266331656  7.885918003565064 27.839195979899493  9.283422459893048 29.246231155778894  C 10.680926916221035 30.653266331658287  12.377896613190732 31.356783919597994  14.374331550802138 31.356783919597994  C 16.370766488413548 31.356783919597994  18.067736185383243 30.653266331658287  19.46524064171123 29.246231155778894  C 20.862745098039216 27.839195979899493  21.561497326203206 26.130653266331656  21.561497326203206 24.120603015075375  C 21.561497326203206 23.065326633165824  21.324420677361857 22.02261306532663  20.850267379679146 20.992462311557787  C 21.873440285204993 21.469849246231153  22.90909090909091 21.70854271356784  23.9572192513369 21.70854271356784  C 25.95365418894831 21.70854271356784  27.65062388591801 21.005025125628137  29.04812834224599 19.597989949748744  Z M 61.9331550802139 39.459798994974875  C 62.64438502673797 40.288944723618094  63.000000000000014 40.80402010050251  63 41.005025125628144  C 63.000000000000014 41.43216080402009  62.388591800356515 42.26130653266331  61.16577540106952 43.49246231155779  C 59.94295900178253 44.72361809045226  59.11942959001783 45.3391959798995  58.6951871657754 45.3391959798995  C 58.47058823529412 45.3391959798995  58.11497326203209 45.13819095477387  57.6283422459893 44.73618090452262  C 57.14171122994653 44.33417085427135  56.68627450980393 43.91959798994975  56.2620320855615 43.49246231155779  C 55.83778966131908 43.065326633165824  55.35739750445634 42.562814070351756  54.82085561497326 41.984924623115575  C 54.2843137254902 41.40703517587939  53.978609625668454 41.08040201005026  53.90374331550802 41.005025125628144  L 50.31016042780749 44.62311557788945  L 58.54545454545455 52.914572864321606  C 59.24420677361854 53.61809045226131  59.593582887700535 54.472361809045225  59.593582887700535 55.47738693467337  C 59.593582887700535 56.53266331658292  59.106951871657756 57.550251256281406  58.13368983957219 58.530150753768844  C 57.160427807486634 59.51005025125628  56.149732620320854 60  55.101604278074866 60  C 54.10338680926917 60  53.254901960784316 59.64824120603016  52.55614973262032 58.94472361809045  L 27.43850267379679 33.65577889447236  C 23.046345811051697 36.947236180904525  18.49197860962567 38.59296482412061  13.775401069518717 38.59296482412061  C 9.707664884135474 38.59296482412061  6.394830659536543 37.30527638190955  3.836898395721926 34.72989949748743  C 1.278966131907309 32.154522613065325  0 28.819095477386934  0 24.723618090452263  C 0 20.703517587939693  1.1853832442067742 16.7713567839196  3.5561497326203213 12.927135678391956  C 5.92691622103387 9.08291457286432  9.02139037433155 5.967336683417082  12.83957219251337 3.5804020100502543  C 16.65775401069519 1.1934673366834136  20.563279857397507 0  24.55614973262032 0  C 28.62388591800357 0  31.9367201426025 1.2876884422110502  34.49465240641711 3.863065326633164  C 37.05258467023173 6.438442211055271  38.33155080213904 9.773869346733663  38.33155080213904 13.869346733668342  C 38.33155080213904 18.61809045226131  36.696969696969695 23.203517587939697  33.42780748663101 27.62562814070352  L 46.716577540106954 41.005025125628144  L 50.31016042780749 37.38693467336684  C 50.235294117647065 37.311557788944725  49.910873440285215 37.003768844221106  49.336898395721924 36.46356783919598  C 48.76292335115865 35.92336683417085  48.2638146167558 35.439698492462306  47.83957219251337 35.01256281407036  C 47.41532976827095 34.585427135678394  47.003565062388596 34.12688442211055  46.60427807486631 33.63693467336684  C 46.204991087344034 33.14698492462311  46.00534759358289 32.788944723618094  46.00534759358289 32.56281407035176  C 46.00534759358289 32.1356783919598  46.61675579322639 31.306532663316577  47.83957219251337 30.07537688442211  C 49.062388591800364 28.844221105527634  49.88591800356507 28.2286432160804  50.31016042780749 28.2286432160804  C 50.634581105169346 28.2286432160804  50.92156862745099 28.35427135678392  51.17112299465241 28.605527638190953  C 51.32085561497326 28.75628140703518  51.894830659536545 29.315326633165824  52.89304812834225 30.282663316582916  C 53.89126559714796 31.249999999999996  54.9144385026738 32.24874371859296  55.962566844919785 33.278894472361806  C 57.01069518716578 34.30904522613065  58.090017825311946 35.3894472361809  59.20053475935829 36.52010050251257  C 60.31105169340464 37.65075376884422  61.22192513368985 38.630653266331656  61.9331550802139 39.459798994974875  Z " fill-rule="nonzero" fill="#f7f7f7" stroke="none" transform="matrix(1 0 0 1 218 79 )" />
  </g>
</svg>