<?xml version="1.0" encoding="utf-8"?>
<svg version="1.1" xmlns:xlink="http://www.w3.org/1999/xlink" width="76px" height="60px" xmlns="http://www.w3.org/2000/svg">
  <g transform="matrix(1 0 0 1 -320 -79 )">
    <path d="M 70.16852678571429 54.140625  C 70.43712797619048 53.87073863636364  70.57142857142857 53.55113636363637  70 53.18181818181818  L 70 20.454545454545457  C 69.66666666666669 21.477272727272727  68.69122023809526 22.414772727272727  67.64508928571429 23.267045454545457  C 60.067708333333336 29.119318181818176  54.04538690476191 33.92045454545455  49.578125 37.67045454545455  C 48.136160714285715 38.892045454545446  46.96279761904762 39.84375  46.058035714285715 40.52556818181818  C 45.15327380952381 41.20738636363636  43.93043154761906 41.89630681818181  42.38950892857142 42.59232954545455  C 40.84858630952381 43.28835227272727  39.39955357142858 43.63636363636364  38.042410714285715 43.63636363636364  L 38 43.63636363636364  L 37.957589285714285 43.63636363636364  C 36.60044642857143 43.63636363636364  35.15141369047619 43.28835227272727  33.61049107142857 42.59232954545455  C 32.069568452380956 41.89630681818181  30.846726190476193 41.20738636363636  29.94196428571429 40.52556818181818  C 29.037202380952387 39.84375  27.86383928571429 38.892045454545446  26.421875 37.67045454545455  C 21.9546130952381 33.92045454545455  15.93229166666667 29.119318181818176  8.354910714285714 23.267045454545457  C 7.308779761904763 22.414772727272727  6.333333333333334 21.477272727272727  6 20.454545454545457  L 6 53.18181818181818  C 5.428571428571428 53.55113636363637  5.562872023809525 53.87073863636364  5.831473214285714 54.140625  C 6.100074404761905 54.41051136363636  6.418154761904763 54.54545454545455  6.785714285714286 54  L 69.21428571428571 54  C 69.58184523809524 54.54545454545455  69.8999255952381 54.41051136363636  70.16852678571429 54.140625  Z M 68.59933035714286 13.998579545454543  C 69.9140625 11.938920454545448  70.57142857142857 10.071022727272727  70.57142857142857 8.394886363636363  L 70.57142857142857 7.926136363636362  L 70.57142857142857 7.350852272727275  C 70.57142857142857 7.350852272727275  70.56436011904762 7.166193181818173  70.55022321428571 6.796875  C 70.53608630952381 6.427556818181815  70.4936755952381 6.249999999999991  70.42299107142857 6.264204545454543  C 70.35230654761905 6.27840909090909  70.27455357142857 6.150568181818176  70.18973214285714 5.880681818181818  C 70.10491071428571 5.610795454545448  69.97767857142857 5.50426136363636  69.80803571428571 5.561079545454543  C 69.63839285714286 5.617897727272727  69.4404761904762 5.582386363636362  69.21428571428571 6  L 6.785714285714286 6  C 6.418154761904763 5.454545454545457  6.100074404761905 5.589488636363629  5.831473214285714 5.859375  C 5.562872023809525 6.129261363636358  5.428571428571428 6.448863636363633  5.428571428571428 6.818181818181818  C 5.428571428571428 11.590909090909093  7.506696428571428 15.624999999999991  11.662946428571429 18.920454545454543  C 17.11979166666667 23.23863636363636  22.788690476190478 27.741477272727273  28.669642857142858 32.42897727272727  C 28.83928571428571 32.57102272727272  29.334077380952387 32.99005681818181  30.154017857142858 33.68607954545455  C 30.973958333333336 34.38210227272727  31.624255952380956 34.91477272727272  32.104910714285715 35.284090909090914  C 32.58556547619048 35.653409090909086  33.21465773809524 36.100852272727266  33.9921875 36.62642045454545  C 34.76971726190476 37.15198863636363  35.483630952380956 37.54261363636364  36.13392857142857 37.79829545454545  C 36.78422619047619 38.05397727272727  37.3921130952381 38.18181818181818  37.957589285714285 38.18181818181818  L 38 38.18181818181818  L 38.042410714285715 38.18181818181818  C 38.60788690476191 38.18181818181818  39.21577380952381 38.05397727272727  39.86607142857142 37.79829545454545  C 40.51636904761906 37.54261363636364  41.23028273809524 37.15198863636363  42.0078125 36.62642045454545  C 42.78534226190476 36.100852272727266  43.414434523809526 35.653409090909086  43.895089285714285 35.284090909090914  C 44.37574404761906 34.91477272727272  45.02604166666667 34.38210227272727  45.84598214285714 33.68607954545455  C 46.66592261904762 32.99005681818181  47.160714285714285 32.57102272727272  47.33035714285714 32.42897727272727  C 53.211309523809526 27.741477272727273  58.880208333333336 23.23863636363636  64.33705357142857 18.920454545454543  C 65.86383928571429 17.698863636363633  67.28459821428571 16.058238636363633  68.59933035714286 13.998579545454543  Z M 74.00669642857143 2.002840909090906  C 75.33556547619048 3.3380681818181768  76 4.943181818181818  76 6.818181818181818  L 76 53.18181818181818  C 76 55.05681818181818  75.33556547619048 56.66193181818182  74.00669642857143 57.99715909090909  C 72.6778273809524 59.33238636363636  71.08035714285715 60  69.21428571428571 60  L 6.785714285714286 60  C 4.919642857142858 60  3.3221726190476195 59.33238636363636  1.9933035714285714 57.99715909090909  C 0.6644345238095238 56.66193181818182  0 55.05681818181818  0 53.18181818181818  L 0 6.818181818181818  C 0 4.943181818181818  0.6644345238095238 3.3380681818181768  1.9933035714285714 2.002840909090906  C 3.3221726190476195 0.6676136363636287  4.919642857142858 0  6.785714285714286 0  L 69.21428571428571 0  C 71.08035714285715 0  72.6778273809524 0.6676136363636287  74.00669642857143 2.002840909090906  Z " fill-rule="nonzero" fill="#ffffff" stroke="none" transform="matrix(1 0 0 1 320 79 )" />
  </g>
</svg>